<svg width="50" height="50" version="1.1" viewBox="0 0 13.229 13.229" xmlns="http://www.w3.org/2000/svg">
 <text x="2.2042029" y="12.826659" font-family="'Segoe UI'" font-size="10.583px" stroke-width=".26458" style="line-height:1.25" xml:space="preserve"><tspan x="2.2042029" y="12.826659" font-family="'Segoe UI'" font-size="2.8222px" stroke-width=".26458">AWACS</tspan></text>
 <path d="m6.3873 1.3229v0.63416a3.9219 3.9219 0 0 0-3.7333 3.7434h-0.70122v0.438h0.70625a3.9219 3.9219 0 0 0 3.7241 3.6532v0.64129h0.43758v-0.64464a3.9219 3.9219 0 0 0 3.6637-3.6499h0.68027v-0.438h-0.67482a3.9219 3.9219 0 0 0-3.665-3.7396v-0.63793zm0 0.97199v0.96151h0.43758v-0.95648a3.5782 3.5782 0 0 1 3.3158 3.4005h-0.90954v0.438h0.90283a3.5782 3.5782 0 0 1-3.3133 3.2995v-0.93846h-0.43758v0.94265a3.5782 3.5782 0 0 1-3.385-3.3037h0.88816v-0.438h-0.89403a3.5782 3.5782 0 0 1 3.395-3.4055z" fill="none" stroke="#000" stroke-width=".17891"/>
</svg>
