<svg width="50" height="50" version="1.1" viewBox="0 0 13.229 13.229" xmlns="http://www.w3.org/2000/svg">
 <text x="0.40789047" y="12.406297" font-family="'Segoe UI'" font-size="9.6989px" stroke-width=".24248" style="line-height:1.25" xml:space="preserve"><tspan x="0.40789047" y="12.406297" dx="0.55822867" font-family="'Segoe UI'" font-size="2.5864px" stroke-width=".24248">TRIGGERS</tspan></text>
 <g transform="translate(-.031899 -.39873)" stroke="#000">
  <g stroke-width=".26458">
   <path d="m3.3813 6.2681 6.1724-2.5838"/>
   <path d="m9.458 6.316 1.563-0.015949"/>
   <path d="m1.9555 6.3405 1.563-0.015949"/>
  </g>
  <path d="m3.8251 6.3339a0.43553 0.45301 0 0 1-0.43467 0.45301 0.43553 0.45301 0 0 1-0.43638-0.45122 0.43553 0.45301 0 0 1 0.43294-0.45479 0.43553 0.45301 0 0 1 0.43809 0.44942l-0.43551 0.00358z" stroke-width=".11185"/>
  <path d="m9.9872 6.311a0.44246 0.46022 0 0 1-0.44158 0.46022 0.44246 0.46022 0 0 1-0.44333-0.4584 0.44246 0.46022 0 0 1 0.43983-0.46203 0.44246 0.46022 0 0 1 0.44507 0.45658l-0.44244 0.00364z" stroke-width=".11363"/>
 </g>
</svg>
